<svg version="1.1" preserveAspectRatio="none" xmlns="http://www.w3.org/2000/svg" width="500" height="500" viewBox="0 0 500 500"><rect width="100%" height="100%" fill="#FFA569" fill-opacity="1"/><svg viewBox="833.9018 578.5605 565.4405 160" width="333" height="94.2274209222721" x="83.5px" y="202.8863px" xmlns="http://www.w3.org/2000/svg" xmlns:xlink="http://www.w3.org/1999/xlink" preserveAspectRatio="none"><defs></defs><style>.aIptOCySncolors-3 {fill:#FF3737;fill-opacity:1;}.aIptOCySncolors-4 {fill:#B15400;fill-opacity:1;}.aIptOCySncolors-5 {fill:#FF8484;fill-opacity:1;}.aIptOCySncolors-6 {fill:#E74949;fill-opacity:1;}.aIptOCySncolors-7 {fill:#FDB3B3;fill-opacity:1;}.background {fill:#FFA569;fill-opacity:1;}.companyName {fill:#FFFFFF;fill-opacity:1;}.icon3 {fill:#393939;fill-opacity:1;}.icon3-str {stroke:#393939;stroke-opacity:1;}.shape {fill:#FC924B;fill-opacity:1;}.shapeStroke-str {stroke:#FFFFFF;stroke-opacity:1;}.text {fill:#FFFFFF;fill-opacity:1;}</style><g opacity="1" transform="rotate(0 833.9018 578.5605)">
<svg width="160.0006" height="160" x="833.9018" y="578.5605" version="1.1" preserveAspectRatio="none" viewBox="0 0 160.0006 160">
  <defs><rect x="0" y="0" width="160.0006" height="160" rx="10px" ry="10px" id="id-5kldYRpCP1717600550036"></rect></defs><use class="companyName shapeStroke-str" style="stroke-width:0;" xlink:href="#id-5kldYRpCP1717600550036"></use>
</svg>
</g><g opacity="1" transform="rotate(0 848.9018 595.815)">
<svg width="130.0006" height="125.4911" x="848.9018" y="595.815" version="1.1" preserveAspectRatio="none" viewBox="4.999375343322754 6.560999870300293 89.99995422363281 86.87806701660156">
  <g transform="matrix(1 0 0 1 0 0)" class="background"><path fill-rule="evenodd" clip-rule="evenodd" d="M94.406,40.817c1.143,9.305,0.922,18.194-3.255,26.673  c-5.366,10.893-9.545,13.144-20.917,9.586c-6.299-1.971-12.373-4.812-18.322-7.727c-9.872-4.835-19.529-10.234-30.845-10.708  c-3.873-0.161-7.803,0.269-11.661,0.777c-2.2,0.289-3.095-0.211-3.616-2.407c-1.875-7.915-0.728-10.421,6.856-13.822  c11.532-5.171,23.133-5.013,35.065-1.09c8.05,2.647,16.298,5.112,24.65,6.312C80.416,49.567,88.659,48.817,94.406,40.817z"></path><path fill-rule="evenodd" clip-rule="evenodd" d="M67.818,6.561c9.84,4.273,17.036,11.02,22.212,20.082  c1.813,3.174,0.578,3.842-2.52,4.253c-9.778,1.298-18.507-2.149-27.186-5.717c-15.77-6.482-31.348-7.207-46.795,0.931  c-0.621,0.328-1.313,0.522-1.983,0.75c-0.101,0.034-0.252-0.086-1.668-0.626c3.516-4.132,6.71-7.999,10.024-11.756  C25.642,7.968,33.03,7.32,40.942,8.791c4.256,0.792,8.49,1.7,12.745,2.509C59.229,12.352,64.395,12.124,67.818,6.561z"></path><path fill-rule="evenodd" clip-rule="evenodd" d="M71.58,87.576c-11.521,9.362-37.923,6.849-47.047-2.846  c3.212-0.741,5.853-1.937,8.436-1.826c6.02,0.261,12.024,1.063,18.013,1.812C57.914,85.583,64.824,86.63,71.58,87.576z"></path></g>
</svg>
</g><g opacity="1" transform="rotate(0 1017.9024 578.5605)">
<svg width="318.781" height="120" x="1017.9024" y="578.5605" version="1.1" preserveAspectRatio="none" viewBox="0.84 -29.68 205.72 77.44">
  <g transform="matrix(1 0 0 1 0 0)" class="companyName"><path id="id-D6z1nYkh14" d="M21.04-6.92L21.04-14.60L28.04-14.60L28.04-3Q25.64-1.28 22.52-0.36Q19.40 0.56 16.28 0.56L16.28 0.56Q11.88 0.56 8.36-1.30Q4.84-3.16 2.84-6.48Q0.84-9.80 0.84-14L0.84-14Q0.84-18.20 2.84-21.52Q4.84-24.84 8.40-26.70Q11.96-28.56 16.44-28.56L16.44-28.56Q20.36-28.56 23.48-27.24Q26.60-25.92 28.68-23.44L28.68-23.44L23.64-18.88Q20.80-22 16.84-22L16.84-22Q13.24-22 11.04-19.82Q8.84-17.64 8.84-14L8.84-14Q8.84-11.68 9.84-9.86Q10.84-8.04 12.64-7.02Q14.44-6 16.76-6L16.76-6Q19.04-6 21.04-6.92L21.04-6.92Z M32.72 0L32.72-29.68L40.32-29.68L40.32 0L32.72 0Z M56.12 0.36Q52.64 0.36 49.84-1.08Q47.04-2.52 45.46-5.08Q43.88-7.64 43.88-10.88L43.88-10.88Q43.88-14.08 45.46-16.64Q47.04-19.20 49.82-20.62Q52.60-22.04 56.12-22.04L56.12-22.04Q59.64-22.04 62.44-20.62Q65.24-19.20 66.80-16.66Q68.36-14.12 68.36-10.88L68.36-10.88Q68.36-7.64 66.80-5.08Q65.24-2.52 62.44-1.08Q59.64 0.36 56.12 0.36L56.12 0.36ZM56.12-5.68Q58.12-5.68 59.40-7.06Q60.68-8.44 60.68-10.88L60.68-10.88Q60.68-13.28 59.40-14.64Q58.12-16 56.12-16L56.12-16Q54.12-16 52.84-14.64Q51.56-13.28 51.56-10.88L51.56-10.88Q51.56-8.44 52.84-7.06Q54.12-5.68 56.12-5.68L56.12-5.68Z M85.52-22.04Q88.48-22.04 90.90-20.68Q93.32-19.32 94.74-16.78Q96.16-14.24 96.16-10.88L96.16-10.88Q96.16-7.52 94.74-4.96Q93.32-2.40 90.90-1.02Q88.48 0.36 85.52 0.36L85.52 0.36Q81.24 0.36 79.12-2.16L79.12-2.16L79.12 0L71.88 0L71.88-29.68L79.48-29.68L79.48-19.80Q81.68-22.04 85.52-22.04L85.52-22.04ZM83.92-5.68Q85.92-5.68 87.20-7.06Q88.48-8.44 88.48-10.88L88.48-10.88Q88.48-13.28 87.20-14.64Q85.92-16 83.92-16L83.92-16Q81.92-16 80.64-14.64Q79.36-13.28 79.36-10.88L79.36-10.88Q79.36-8.44 80.64-7.06Q81.92-5.68 83.92-5.68L83.92-5.68Z M108.44-22.04Q113.84-22.04 116.68-19.58Q119.52-17.12 119.52-12.04L119.52-12.04L119.52 0L112.44 0L112.44-2.80Q110.80 0.36 106.04 0.36L106.04 0.36Q103.52 0.36 101.68-0.52Q99.84-1.40 98.90-2.90Q97.96-4.40 97.96-6.32L97.96-6.32Q97.96-9.40 100.32-11.10Q102.68-12.80 107.60-12.80L107.60-12.80L111.92-12.80Q111.72-16.24 107.32-16.24L107.32-16.24Q105.76-16.24 104.16-15.74Q102.56-15.24 101.44-14.36L101.44-14.36L98.88-19.52Q100.68-20.72 103.26-21.38Q105.84-22.04 108.44-22.04L108.44-22.04ZM108.16-4.44Q109.48-4.44 110.48-5.08Q111.48-5.72 111.92-6.96L111.92-6.96L111.92-8.84L108.64-8.84Q105.32-8.84 105.32-6.64L105.32-6.64Q105.32-5.64 106.08-5.04Q106.84-4.44 108.16-4.44L108.16-4.44Z M124.32 0L124.32-29.68L131.92-29.68L131.92 0L124.32 0Z M12.64 40.56Q9.24 40.56 6.04 39.72Q2.84 38.88 0.84 37.48L0.84 37.48L3.44 31.64Q5.32 32.88 7.80 33.64Q10.28 34.40 12.68 34.40L12.68 34.40Q17.24 34.40 17.24 32.12L17.24 32.12Q17.24 30.92 15.94 30.34Q14.64 29.76 11.76 29.12L11.76 29.12Q8.60 28.44 6.48 27.66Q4.36 26.88 2.84 25.16Q1.32 23.44 1.32 20.52L1.32 20.52Q1.32 17.96 2.72 15.90Q4.12 13.84 6.90 12.64Q9.68 11.44 13.72 11.44L13.72 11.44Q16.48 11.44 19.16 12.06Q21.84 12.68 23.88 13.88L23.88 13.88L21.44 19.76Q17.44 17.60 13.68 17.60L13.68 17.60Q11.32 17.60 10.24 18.30Q9.16 19 9.16 20.12L9.16 20.12Q9.16 21.24 10.44 21.80Q11.72 22.36 14.56 22.96L14.56 22.96Q17.76 23.64 19.86 24.42Q21.96 25.20 23.50 26.90Q25.04 28.60 25.04 31.52L25.04 31.52Q25.04 34.04 23.64 36.08Q22.24 38.12 19.44 39.34Q16.64 40.56 12.64 40.56L12.64 40.56Z M41.96 17.96Q44.92 17.96 47.34 19.34Q49.76 20.72 51.18 23.26Q52.60 25.80 52.60 29.16L52.60 29.16Q52.60 32.52 51.18 35.06Q49.76 37.60 47.34 38.98Q44.92 40.36 41.96 40.36L41.96 40.36Q38.16 40.36 35.92 38.08L35.92 38.08L35.92 47.76L28.32 47.76L28.32 18.32L35.56 18.32L35.56 20.48Q37.68 17.96 41.96 17.96L41.96 17.96ZM40.36 34.32Q42.36 34.32 43.64 32.94Q44.92 31.56 44.92 29.16L44.92 29.16Q44.92 26.76 43.64 25.38Q42.36 24 40.36 24L40.36 24Q38.36 24 37.08 25.38Q35.80 26.76 35.80 29.16L35.80 29.16Q35.80 31.56 37.08 32.94Q38.36 34.32 40.36 34.32L40.36 34.32Z M78.28 29.20Q78.28 29.28 78.16 31.08L78.16 31.08L62.40 31.08Q62.88 32.76 64.26 33.66Q65.64 34.56 67.72 34.56L67.72 34.56Q69.28 34.56 70.42 34.12Q71.56 33.68 72.72 32.68L72.72 32.68L76.72 36.84Q73.56 40.36 67.48 40.36L67.48 40.36Q63.68 40.36 60.80 38.92Q57.92 37.48 56.34 34.92Q54.76 32.36 54.76 29.12L54.76 29.12Q54.76 25.92 56.30 23.38Q57.84 20.84 60.56 19.40Q63.28 17.96 66.68 17.96L66.68 17.96Q69.92 17.96 72.56 19.30Q75.20 20.64 76.74 23.18Q78.28 25.72 78.28 29.20L78.28 29.20ZM66.72 23.36Q64.96 23.36 63.78 24.36Q62.60 25.36 62.28 27.08L62.28 27.08L71.16 27.08Q70.84 25.36 69.66 24.36Q68.48 23.36 66.72 23.36L66.72 23.36Z M92.88 40.36Q89.28 40.36 86.44 38.92Q83.60 37.48 82.02 34.92Q80.44 32.36 80.44 29.12L80.44 29.12Q80.44 25.88 82.02 23.34Q83.60 20.80 86.44 19.38Q89.28 17.96 92.88 17.96L92.88 17.96Q96.56 17.96 99.24 19.54Q101.92 21.12 103.04 23.92L103.04 23.92L97.16 26.92Q95.68 24 92.84 24L92.84 24Q90.80 24 89.46 25.36Q88.12 26.72 88.12 29.12L88.12 29.12Q88.12 31.56 89.46 32.94Q90.80 34.32 92.84 34.32L92.84 34.32Q95.68 34.32 97.16 31.40L97.16 31.40L103.04 34.40Q101.92 37.20 99.24 38.78Q96.56 40.36 92.88 40.36L92.88 40.36Z M119.36 33.80L121.24 39.12Q120.28 39.72 118.90 40.04Q117.52 40.36 115.96 40.36L115.96 40.36Q111.72 40.36 109.44 38.28Q107.16 36.20 107.16 32.08L107.16 32.08L107.16 24.80L104 24.80L104 19.12L107.16 19.12L107.16 13.48L114.76 13.48L114.76 19.12L119.72 19.12L119.72 24.80L114.76 24.80L114.76 32Q114.76 33.16 115.38 33.82Q116 34.48 117.04 34.48L117.04 34.48Q118.36 34.48 119.36 33.80L119.36 33.80Z M131.40 20.92Q132.56 19.44 134.42 18.70Q136.28 17.96 138.68 17.96L138.68 17.96L138.68 24.80Q137.64 24.68 136.96 24.68L136.96 24.68Q134.52 24.68 133.14 26Q131.76 27.32 131.76 30.04L131.76 30.04L131.76 40L124.16 40L124.16 18.32L131.40 18.32L131.40 20.92Z M157.08 18.32L164.68 18.32L164.68 40L157.44 40L157.44 37.68Q156.24 39 154.56 39.68Q152.88 40.36 151 40.36L151 40.36Q146.80 40.36 144.30 37.88Q141.80 35.40 141.80 30.44L141.80 30.44L141.80 18.32L149.40 18.32L149.40 29.20Q149.40 31.64 150.32 32.76Q151.24 33.88 153 33.88L153 33.88Q154.80 33.88 155.94 32.62Q157.08 31.36 157.08 28.76L157.08 28.76L157.08 18.32Z M197.80 17.96Q201.80 17.96 204.18 20.36Q206.56 22.76 206.56 27.60L206.56 27.60L206.56 40L198.96 40L198.96 28.84Q198.96 26.56 198.10 25.48Q197.24 24.40 195.68 24.40L195.68 24.40Q193.96 24.40 192.92 25.60Q191.88 26.80 191.88 29.24L191.88 29.24L191.88 40L184.28 40L184.28 28.84Q184.28 24.40 181 24.40L181 24.40Q179.24 24.40 178.20 25.60Q177.16 26.80 177.16 29.24L177.16 29.24L177.16 40L169.56 40L169.56 18.32L176.80 18.32L176.80 20.60Q178 19.28 179.66 18.62Q181.32 17.96 183.28 17.96L183.28 17.96Q185.56 17.96 187.36 18.80Q189.16 19.64 190.28 21.36L190.28 21.36Q191.56 19.72 193.52 18.84Q195.48 17.96 197.80 17.96L197.80 17.96Z"/></g>
</svg>
</g><g opacity="1" transform="rotate(0 1017.9024 718.5605)">
<svg width="381.4399" height="20" x="1017.9024" y="718.5605" version="1.1" preserveAspectRatio="none" viewBox="3.64 -30.28 730.36 38.28">
  <g transform="matrix(1 0 0 1 0 0)" class="text"><path id="id-D-YM9nyY432" d="M14.96-21.40Q19-21.40 21.38-19.06Q23.76-16.72 23.76-12.20L23.76-12.20L23.76 0L19.92 0L19.92-11.76Q19.92-14.84 18.44-16.40Q16.96-17.96 14.20-17.96L14.20-17.96Q11.08-17.96 9.28-16.14Q7.48-14.32 7.48-10.92L7.48-10.92L7.48 0L3.64 0L3.64-21.20L7.32-21.20L7.32-18Q8.48-19.64 10.46-20.52Q12.44-21.40 14.96-21.40L14.96-21.40Z M51.36-10.48Q51.36-10.04 51.28-9.32L51.28-9.32L34.08-9.32Q34.44-6.52 36.54-4.82Q38.64-3.12 41.76-3.12L41.76-3.12Q45.56-3.12 47.88-5.68L47.88-5.68L50-3.20Q48.56-1.52 46.42-0.64Q44.28 0.24 41.64 0.24L41.64 0.24Q38.28 0.24 35.68-1.14Q33.08-2.52 31.66-5Q30.24-7.48 30.24-10.60L30.24-10.60Q30.24-13.68 31.62-16.16Q33-18.64 35.42-20.02Q37.84-21.40 40.88-21.40L40.88-21.40Q43.92-21.40 46.30-20.02Q48.68-18.64 50.02-16.16Q51.36-13.68 51.36-10.48L51.36-10.48ZM40.88-18.16Q38.12-18.16 36.26-16.48Q34.40-14.80 34.08-12.08L34.08-12.08L47.68-12.08Q47.36-14.76 45.50-16.46Q43.64-18.16 40.88-18.16L40.88-18.16Z M86.12-21.20L89.56-21.20L81.64 0L77.96 0L71.84-16.08L65.64 0L61.96 0L54.08-21.20L57.72-21.20L63.88-4.32L70.28-21.20L73.52-21.20L79.80-4.24L86.12-21.20Z M100.44 0.24Q97.84 0.24 95.44-0.46Q93.04-1.16 91.68-2.24L91.68-2.24L93.28-5.28Q94.68-4.28 96.68-3.68Q98.68-3.08 100.72-3.08L100.72-3.08Q105.76-3.08 105.76-5.96L105.76-5.96Q105.76-6.92 105.08-7.48Q104.40-8.04 103.38-8.30Q102.36-8.56 100.48-8.88L100.48-8.88Q97.92-9.28 96.30-9.80Q94.68-10.32 93.52-11.56Q92.36-12.80 92.36-15.04L92.36-15.04Q92.36-17.92 94.76-19.66Q97.16-21.40 101.20-21.40L101.20-21.40Q103.32-21.40 105.44-20.88Q107.56-20.36 108.92-19.48L108.92-19.48L107.28-16.44Q104.68-18.12 101.16-18.12L101.16-18.12Q98.72-18.12 97.44-17.32Q96.16-16.52 96.16-15.20L96.16-15.20Q96.16-14.16 96.88-13.56Q97.60-12.96 98.66-12.68Q99.72-12.40 101.64-12.04L101.64-12.04Q104.20-11.60 105.78-11.10Q107.36-10.60 108.48-9.40Q109.60-8.20 109.60-6.04L109.60-6.04Q109.60-3.16 107.14-1.46Q104.68 0.24 100.44 0.24L100.44 0.24Z M116.56-5.24Q117.68-5.24 118.42-4.46Q119.16-3.68 119.16-2.52L119.16-2.52Q119.16-1.92 119.02-1.36Q118.88-0.80 118.48 0.36L118.48 0.36L116.60 5.92L114.08 5.92L115.56-0.04Q114.80-0.32 114.34-0.98Q113.88-1.64 113.88-2.52L113.88-2.52Q113.88-3.72 114.64-4.48Q115.40-5.24 116.56-5.24L116.56-5.24Z M137.84 0L137.84-21.20L141.68-21.20L141.68 0L137.84 0ZM139.76-25.28Q138.64-25.28 137.90-26Q137.16-26.72 137.16-27.76L137.16-27.76Q137.16-28.80 137.90-29.54Q138.64-30.28 139.76-30.28L139.76-30.28Q140.88-30.28 141.62-29.58Q142.36-28.88 142.36-27.84L142.36-27.84Q142.36-26.76 141.62-26.02Q140.88-25.28 139.76-25.28L139.76-25.28Z M161.52-21.40Q165.56-21.40 167.94-19.06Q170.32-16.72 170.32-12.20L170.32-12.20L170.32 0L166.48 0L166.48-11.76Q166.48-14.84 165-16.40Q163.52-17.96 160.76-17.96L160.76-17.96Q157.64-17.96 155.84-16.14Q154.04-14.32 154.04-10.92L154.04-10.92L154.04 0L150.20 0L150.20-21.20L153.88-21.20L153.88-18Q155.04-19.64 157.02-20.52Q159-21.40 161.52-21.40L161.52-21.40Z M186.40-26.76Q182.96-26.76 182.96-23.04L182.96-23.04L182.96-21.20L189.12-21.20L189.12-18.04L183.04-18.04L183.04 0L179.20 0L179.20-18.04L175.60-18.04L175.60-21.20L179.20-21.20L179.20-23.08Q179.20-26.24 181.04-28.08Q182.88-29.92 186.20-29.92L186.20-29.92Q187.48-29.92 188.60-29.60Q189.72-29.28 190.52-28.68L190.52-28.68L189.36-25.76Q188.04-26.76 186.40-26.76L186.40-26.76Z M202.72 0.24Q199.56 0.24 197.04-1.16Q194.52-2.56 193.10-5.02Q191.68-7.48 191.68-10.60L191.68-10.60Q191.68-13.72 193.10-16.18Q194.52-18.64 197.04-20.02Q199.56-21.40 202.72-21.40L202.72-21.40Q205.88-21.40 208.38-20.02Q210.88-18.64 212.30-16.18Q213.72-13.72 213.72-10.60L213.72-10.60Q213.72-7.48 212.30-5.02Q210.88-2.56 208.38-1.16Q205.88 0.24 202.72 0.24L202.72 0.24ZM202.72-3.12Q204.76-3.12 206.38-4.06Q208-5 208.92-6.70Q209.84-8.40 209.84-10.60L209.84-10.60Q209.84-12.80 208.92-14.50Q208-16.20 206.38-17.12Q204.76-18.04 202.72-18.04L202.72-18.04Q200.68-18.04 199.06-17.12Q197.44-16.20 196.50-14.50Q195.56-12.80 195.56-10.60L195.56-10.60Q195.56-8.40 196.50-6.70Q197.44-5 199.06-4.06Q200.68-3.12 202.72-3.12L202.72-3.12Z M223.92-17.64Q224.92-19.48 226.88-20.44Q228.84-21.40 231.64-21.40L231.64-21.40L231.64-17.68Q231.32-17.72 230.76-17.72L230.76-17.72Q227.64-17.72 225.86-15.86Q224.08-14 224.08-10.56L224.08-10.56L224.08 0L220.24 0L220.24-21.20L223.92-21.20L223.92-17.64Z M264.08-21.40Q268.08-21.40 270.42-19.08Q272.76-16.76 272.76-12.20L272.76-12.20L272.76 0L268.92 0L268.92-11.76Q268.92-14.84 267.50-16.40Q266.08-17.96 263.44-17.96L263.44-17.96Q260.52-17.96 258.80-16.14Q257.08-14.32 257.08-10.92L257.08-10.92L257.08 0L253.24 0L253.24-11.76Q253.24-14.84 251.82-16.40Q250.40-17.96 247.76-17.96L247.76-17.96Q244.84-17.96 243.12-16.14Q241.40-14.32 241.40-10.92L241.40-10.92L241.40 0L237.56 0L237.56-21.20L241.24-21.20L241.24-18.04Q242.40-19.68 244.28-20.54Q246.16-21.40 248.56-21.40L248.56-21.40Q251.04-21.40 252.96-20.40Q254.88-19.40 255.92-17.48L255.92-17.48Q257.12-19.32 259.26-20.36Q261.40-21.40 264.08-21.40L264.08-21.40Z M288.76-21.40Q293.16-21.40 295.50-19.24Q297.84-17.08 297.84-12.80L297.84-12.80L297.84 0L294.20 0L294.20-2.80Q293.24-1.32 291.46-0.54Q289.68 0.24 287.24 0.24L287.24 0.24Q283.68 0.24 281.54-1.48Q279.40-3.20 279.40-6L279.40-6Q279.40-8.80 281.44-10.50Q283.48-12.20 287.92-12.20L287.92-12.20L294-12.20L294-12.96Q294-15.44 292.56-16.76Q291.12-18.08 288.32-18.08L288.32-18.08Q286.44-18.08 284.64-17.46Q282.84-16.84 281.60-15.80L281.60-15.80L280-18.68Q281.64-20 283.92-20.70Q286.20-21.40 288.76-21.40L288.76-21.40ZM287.88-2.72Q290.08-2.72 291.68-3.70Q293.28-4.68 294-6.48L294-6.48L294-9.44L288.08-9.44Q283.20-9.44 283.20-6.16L283.20-6.16Q283.20-4.56 284.44-3.64Q285.68-2.72 287.88-2.72L287.88-2.72Z M316.88-4L318.08-1.24Q317.24-0.52 316-0.14Q314.76 0.24 313.44 0.24L313.44 0.24Q310.24 0.24 308.48-1.48Q306.72-3.20 306.72-6.40L306.72-6.40L306.72-18.04L303.12-18.04L303.12-21.20L306.72-21.20L306.72-25.84L310.56-25.84L310.56-21.20L316.64-21.20L316.64-18.04L310.56-18.04L310.56-6.56Q310.56-4.84 311.42-3.92Q312.28-3 313.88-3L313.88-3Q315.64-3 316.88-4L316.88-4Z M323.92 0L323.92-21.20L327.76-21.20L327.76 0L323.92 0ZM325.84-25.28Q324.72-25.28 323.98-26Q323.24-26.72 323.24-27.76L323.24-27.76Q323.24-28.80 323.98-29.54Q324.72-30.28 325.84-30.28L325.84-30.28Q326.96-30.28 327.70-29.58Q328.44-28.88 328.44-27.84L328.44-27.84Q328.44-26.76 327.70-26.02Q326.96-25.28 325.84-25.28L325.84-25.28Z M345.36 0.24Q342.20 0.24 339.68-1.16Q337.16-2.56 335.74-5.02Q334.32-7.48 334.32-10.60L334.32-10.60Q334.32-13.72 335.74-16.18Q337.16-18.64 339.68-20.02Q342.20-21.40 345.36-21.40L345.36-21.40Q348.52-21.40 351.02-20.02Q353.52-18.64 354.94-16.18Q356.36-13.72 356.36-10.60L356.36-10.60Q356.36-7.48 354.94-5.02Q353.52-2.56 351.02-1.16Q348.52 0.24 345.36 0.24L345.36 0.24ZM345.36-3.12Q347.40-3.12 349.02-4.06Q350.64-5 351.56-6.70Q352.48-8.40 352.48-10.60L352.48-10.60Q352.48-12.80 351.56-14.50Q350.64-16.20 349.02-17.12Q347.40-18.04 345.36-18.04L345.36-18.04Q343.32-18.04 341.70-17.12Q340.08-16.20 339.14-14.50Q338.20-12.80 338.20-10.60L338.20-10.60Q338.20-8.40 339.14-6.70Q340.08-5 341.70-4.06Q343.32-3.12 345.36-3.12L345.36-3.12Z M374.20-21.40Q378.24-21.40 380.62-19.06Q383.00-16.72 383.00-12.20L383.00-12.20L383.00 0L379.16 0L379.16-11.76Q379.16-14.84 377.68-16.40Q376.20-17.96 373.44-17.96L373.44-17.96Q370.32-17.96 368.52-16.14Q366.72-14.32 366.72-10.92L366.72-10.92L366.72 0L362.88 0L362.88-21.20L366.56-21.20L366.56-18Q367.72-19.64 369.70-20.52Q371.68-21.40 374.20-21.40L374.20-21.40Z M411.00-21.40Q415.40-21.40 417.74-19.24Q420.08-17.08 420.08-12.80L420.08-12.80L420.08 0L416.44 0L416.44-2.80Q415.48-1.32 413.70-0.54Q411.92 0.24 409.48 0.24L409.48 0.24Q405.92 0.24 403.78-1.48Q401.64-3.20 401.64-6L401.64-6Q401.64-8.80 403.68-10.50Q405.72-12.20 410.16-12.20L410.16-12.20L416.24-12.20L416.24-12.96Q416.24-15.44 414.80-16.76Q413.36-18.08 410.56-18.08L410.56-18.08Q408.68-18.08 406.88-17.46Q405.08-16.84 403.84-15.80L403.84-15.80L402.24-18.68Q403.88-20 406.16-20.70Q408.44-21.40 411.00-21.40L411.00-21.40ZM410.12-2.72Q412.32-2.72 413.92-3.70Q415.52-4.68 416.24-6.48L416.24-6.48L416.24-9.44L410.32-9.44Q405.44-9.44 405.44-6.16L405.44-6.16Q405.44-4.56 406.68-3.64Q407.92-2.72 410.12-2.72L410.12-2.72Z M439.72-21.40Q443.76-21.40 446.14-19.06Q448.52-16.72 448.52-12.20L448.52-12.20L448.52 0L444.68 0L444.68-11.76Q444.68-14.84 443.20-16.40Q441.72-17.96 438.96-17.96L438.96-17.96Q435.84-17.96 434.04-16.14Q432.24-14.32 432.24-10.92L432.24-10.92L432.24 0L428.40 0L428.40-21.20L432.08-21.20L432.08-18Q433.24-19.64 435.22-20.52Q437.20-21.40 439.72-21.40L439.72-21.40Z M473.12-29.68L476.96-29.68L476.96 0L473.28 0L473.28-3.36Q472.00-1.60 470.04-0.68Q468.08 0.24 465.72 0.24L465.72 0.24Q462.64 0.24 460.20-1.12Q457.76-2.48 456.38-4.94Q455.00-7.40 455.00-10.60L455.00-10.60Q455.00-13.80 456.38-16.24Q457.76-18.68 460.20-20.04Q462.64-21.40 465.72-21.40L465.72-21.40Q468.00-21.40 469.92-20.54Q471.84-19.68 473.12-18L473.12-18L473.12-29.68ZM466.04-3.12Q468.04-3.12 469.68-4.06Q471.32-5 472.24-6.70Q473.16-8.40 473.16-10.60L473.16-10.60Q473.16-12.80 472.24-14.50Q471.32-16.20 469.68-17.12Q468.04-18.04 466.04-18.04L466.04-18.04Q464.00-18.04 462.38-17.12Q460.76-16.20 459.82-14.50Q458.88-12.80 458.88-10.60L458.88-10.60Q458.88-8.40 459.82-6.70Q460.76-5 462.38-4.06Q464.00-3.12 466.04-3.12L466.04-3.12Z M508.12-4L509.32-1.24Q508.48-0.52 507.24-0.14Q506.00 0.24 504.68 0.24L504.68 0.24Q501.48 0.24 499.72-1.48Q497.96-3.20 497.96-6.40L497.96-6.40L497.96-18.04L494.36-18.04L494.36-21.20L497.96-21.20L497.96-25.84L501.80-25.84L501.80-21.20L507.88-21.20L507.88-18.04L501.80-18.04L501.80-6.56Q501.80-4.84 502.66-3.92Q503.52-3 505.12-3L505.12-3Q506.88-3 508.12-4L508.12-4Z M533.60-10.48Q533.60-10.04 533.52-9.32L533.52-9.32L516.32-9.32Q516.68-6.52 518.78-4.82Q520.88-3.12 524.00-3.12L524.00-3.12Q527.80-3.12 530.12-5.68L530.12-5.68L532.24-3.20Q530.80-1.52 528.66-0.64Q526.52 0.24 523.88 0.24L523.88 0.24Q520.52 0.24 517.92-1.14Q515.32-2.52 513.90-5Q512.48-7.48 512.48-10.60L512.48-10.60Q512.48-13.68 513.86-16.16Q515.24-18.64 517.66-20.02Q520.08-21.40 523.12-21.40L523.12-21.40Q526.16-21.40 528.54-20.02Q530.92-18.64 532.26-16.16Q533.60-13.68 533.60-10.48L533.60-10.48ZM523.12-18.16Q520.36-18.16 518.50-16.48Q516.64-14.80 516.32-12.08L516.32-12.08L529.92-12.08Q529.60-14.76 527.74-16.46Q525.88-18.16 523.12-18.16L523.12-18.16Z M549.36 0.24Q546.12 0.24 543.58-1.16Q541.04-2.56 539.60-5.02Q538.16-7.48 538.16-10.60L538.16-10.60Q538.16-13.72 539.60-16.18Q541.04-18.64 543.58-20.02Q546.12-21.40 549.36-21.40L549.36-21.40Q552.24-21.40 554.50-20.24Q556.76-19.08 558.00-16.88L558.00-16.88L555.08-15Q554.08-16.52 552.60-17.28Q551.12-18.04 549.32-18.04L549.32-18.04Q547.24-18.04 545.58-17.12Q543.92-16.20 542.98-14.50Q542.04-12.80 542.04-10.60L542.04-10.60Q542.04-8.36 542.98-6.66Q543.92-4.96 545.58-4.04Q547.24-3.12 549.32-3.12L549.32-3.12Q551.12-3.12 552.60-3.88Q554.08-4.64 555.08-6.16L555.08-6.16L558.00-4.32Q556.76-2.12 554.50-0.94Q552.24 0.24 549.36 0.24L549.36 0.24Z M575.20-21.40Q579.24-21.40 581.62-19.06Q584-16.72 584-12.20L584-12.20L584 0L580.16 0L580.16-11.76Q580.16-14.84 578.68-16.40Q577.20-17.96 574.44-17.96L574.44-17.96Q571.32-17.96 569.52-16.14Q567.72-14.32 567.72-10.92L567.72-10.92L567.72 0L563.88 0L563.88-29.68L567.72-29.68L567.72-18.20Q568.92-19.72 570.86-20.56Q572.80-21.40 575.20-21.40L575.20-21.40Z M603.64-21.40Q607.68-21.40 610.06-19.06Q612.44-16.72 612.44-12.20L612.44-12.20L612.44 0L608.60 0L608.60-11.76Q608.60-14.84 607.12-16.40Q605.64-17.96 602.88-17.96L602.88-17.96Q599.76-17.96 597.96-16.14Q596.16-14.32 596.16-10.92L596.16-10.92L596.16 0L592.32 0L592.32-21.20L596.00-21.20L596.00-18Q597.16-19.64 599.14-20.52Q601.12-21.40 603.64-21.40L603.64-21.40Z M629.96 0.24Q626.80 0.24 624.28-1.16Q621.76-2.56 620.34-5.02Q618.92-7.48 618.92-10.60L618.92-10.60Q618.92-13.72 620.34-16.18Q621.76-18.64 624.28-20.02Q626.80-21.40 629.96-21.40L629.96-21.40Q633.12-21.40 635.62-20.02Q638.12-18.64 639.54-16.18Q640.96-13.72 640.96-10.60L640.96-10.60Q640.96-7.48 639.54-5.02Q638.12-2.56 635.62-1.16Q633.12 0.24 629.96 0.24L629.96 0.24ZM629.96-3.12Q632.00-3.12 633.62-4.06Q635.24-5 636.16-6.70Q637.08-8.40 637.08-10.60L637.08-10.60Q637.08-12.80 636.16-14.50Q635.24-16.20 633.62-17.12Q632.00-18.04 629.96-18.04L629.96-18.04Q627.92-18.04 626.30-17.12Q624.68-16.20 623.74-14.50Q622.80-12.80 622.80-10.60L622.80-10.60Q622.80-8.40 623.74-6.70Q624.68-5 626.30-4.06Q627.92-3.12 629.96-3.12L629.96-3.12Z M647.48 0L647.48-29.68L651.32-29.68L651.32 0L647.48 0Z M668.92 0.24Q665.76 0.24 663.24-1.16Q660.72-2.56 659.30-5.02Q657.88-7.48 657.88-10.60L657.88-10.60Q657.88-13.72 659.30-16.18Q660.72-18.64 663.24-20.02Q665.76-21.40 668.92-21.40L668.92-21.40Q672.08-21.40 674.58-20.02Q677.08-18.64 678.50-16.18Q679.92-13.72 679.92-10.60L679.92-10.60Q679.92-7.48 678.50-5.02Q677.08-2.56 674.58-1.16Q672.08 0.24 668.92 0.24L668.92 0.24ZM668.92-3.12Q670.96-3.12 672.58-4.06Q674.20-5 675.12-6.70Q676.04-8.40 676.04-10.60L676.04-10.60Q676.04-12.80 675.12-14.50Q674.20-16.20 672.58-17.12Q670.96-18.04 668.92-18.04L668.92-18.04Q666.88-18.04 665.26-17.12Q663.64-16.20 662.70-14.50Q661.76-12.80 661.76-10.60L661.76-10.60Q661.76-8.40 662.70-6.70Q663.64-5 665.26-4.06Q666.88-3.12 668.92-3.12L668.92-3.12Z M703.08-21.20L706.72-21.20L706.72-2.88Q706.72 2.68 703.96 5.34Q701.20 8 695.72 8L695.72 8Q692.72 8 690.00 7.18Q687.28 6.36 685.60 4.84L685.60 4.84L687.44 1.88Q688.92 3.16 691.10 3.90Q693.28 4.64 695.60 4.64L695.60 4.64Q699.32 4.64 701.10 2.88Q702.88 1.12 702.88-2.48L702.88-2.48L702.88-4.16Q701.52-2.52 699.54-1.70Q697.56-0.88 695.24-0.88L695.24-0.88Q692.20-0.88 689.74-2.18Q687.28-3.48 685.88-5.82Q684.48-8.16 684.48-11.16L684.48-11.16Q684.48-14.16 685.88-16.50Q687.28-18.84 689.74-20.12Q692.20-21.40 695.24-21.40L695.24-21.40Q697.64-21.40 699.70-20.52Q701.76-19.64 703.08-17.92L703.08-17.92L703.08-21.20ZM695.68-4.24Q697.76-4.24 699.42-5.12Q701.08-6 702.02-7.58Q702.96-9.16 702.96-11.16L702.96-11.16Q702.96-14.24 700.92-16.14Q698.88-18.04 695.68-18.04L695.68-18.04Q692.44-18.04 690.40-16.14Q688.36-14.24 688.36-11.16L688.36-11.16Q688.36-9.16 689.30-7.58Q690.24-6 691.90-5.12Q693.56-4.24 695.68-4.24L695.68-4.24Z M730.24-21.20L734.00-21.20L723.72 2.12Q722.36 5.36 720.54 6.68Q718.72 8 716.16 8L716.16 8Q714.60 8 713.14 7.50Q711.68 7 710.72 6.04L710.72 6.04L712.36 3.16Q714.00 4.72 716.16 4.72L716.16 4.72Q717.56 4.72 718.50 3.98Q719.44 3.24 720.20 1.44L720.20 1.44L720.88-0.04L711.52-21.20L715.52-21.20L722.92-4.24L730.24-21.20Z"/></g>
</svg>
</g></svg></svg>